<svg xmlns="http://www.w3.org/2000/svg" xmlns:xlink="http://www.w3.org/1999/xlink" width="1024" zoomAndPan="magnify" viewBox="0 0 768 767.999994" height="1024" preserveAspectRatio="xMidYMid meet" version="1.0"><defs><clipPath id="bac55cb059"><path d="M 287.089844 287.089844 L 480.589844 287.089844 L 480.589844 480.589844 L 287.089844 480.589844 Z M 287.089844 287.089844 " clip-rule="nonzero"/></clipPath></defs><g clip-path="url(#bac55cb059)"><path fill="#004ec3" d="M 480.589844 383.839844 C 480.589844 437.273438 437.273438 480.589844 383.839844 480.589844 C 330.40625 480.589844 287.089844 437.273438 287.089844 383.839844 C 287.089844 330.40625 330.40625 287.089844 383.839844 287.089844 C 437.273438 287.089844 480.589844 330.40625 480.589844 383.839844 " fill-opacity="1" fill-rule="nonzero"/></g><path fill="#ffffff" d="M 387.164062 417.214844 C 396.429688 416.152344 401.0625 410.960938 401.0625 401.644531 C 401.0625 397.828125 400.121094 394.894531 398.238281 392.839844 C 396.351562 390.785156 392.660156 389.09375 387.164062 387.777344 Z M 380.726562 376.988281 L 380.726562 350.410156 C 372.261719 351.769531 368.027344 356.261719 368.027344 363.890625 C 368.027344 368.003906 369.203125 370.992188 371.550781 372.863281 C 373.894531 374.734375 376.953125 376.109375 380.726562 376.988281 Z M 387.164062 378.199219 C 397.113281 380.070312 403.871094 382.796875 407.441406 386.371094 C 411.011719 389.949219 412.796875 394.820312 412.796875 400.980469 C 412.796875 407.402344 410.53125 412.988281 405.996094 417.738281 C 401.464844 422.492188 395.1875 425.066406 387.164062 425.46875 L 387.164062 431.042969 C 387.164062 432.675781 385.839844 434 384.207031 434 L 383.683594 434 C 382.050781 434 380.726562 432.675781 380.726562 431.042969 L 380.726562 425.582031 C 365.722656 424.066406 357.125 417.175781 354.929688 404.910156 C 354.605469 403.09375 355.996094 401.421875 357.839844 401.421875 L 363.597656 401.421875 C 365.015625 401.421875 366.238281 402.429688 366.5 403.820312 C 367.957031 411.515625 372.699219 415.984375 380.726562 417.214844 L 380.726562 386.453125 C 364.480469 383.484375 356.355469 376.238281 356.355469 364.71875 C 356.355469 358.226562 358.550781 352.996094 362.945312 349.035156 C 367.335938 345.074219 373.261719 342.78125 380.726562 342.15625 L 380.726562 336.636719 C 380.726562 335.003906 382.050781 333.683594 383.683594 333.683594 L 384.207031 333.683594 C 385.839844 333.683594 387.164062 335.003906 387.164062 336.636719 L 387.164062 342.15625 C 399.964844 343.042969 407.589844 348.484375 410.046875 358.476562 C 410.503906 360.335938 409.089844 362.132812 407.171875 362.132812 L 401.472656 362.132812 C 400.09375 362.132812 398.902344 361.175781 398.589844 359.828125 C 397.335938 354.433594 393.53125 351.328125 387.164062 350.519531 L 387.164062 378.199219 " fill-opacity="1" fill-rule="nonzero"/><path fill="#ffffff" d="M 451.386719 355.304688 C 447.695312 346.574219 442.410156 338.734375 435.675781 332.003906 C 428.945312 325.273438 421.105469 319.988281 412.375 316.292969 C 407.402344 314.191406 402.253906 312.65625 396.984375 311.703125 C 395.195312 311.382812 393.550781 312.757812 393.550781 314.578125 C 393.550781 315.992188 394.566406 317.195312 395.953125 317.449219 C 427.402344 323.171875 451.324219 350.765625 451.324219 383.839844 C 451.324219 416.917969 427.402344 444.511719 395.953125 450.234375 C 394.566406 450.488281 393.550781 451.691406 393.550781 453.105469 C 393.550781 454.921875 395.195312 456.300781 396.984375 455.976562 C 402.253906 455.023438 407.402344 453.492188 412.375 451.386719 C 421.105469 447.695312 428.945312 442.410156 435.675781 435.675781 C 442.410156 428.945312 447.695312 421.105469 451.386719 412.375 C 455.210938 403.335938 457.148438 393.738281 457.148438 383.839844 C 457.148438 373.945312 455.210938 364.34375 451.386719 355.304688 " fill-opacity="1" fill-rule="nonzero"/><path fill="#ffffff" d="M 316.359375 383.839844 C 316.359375 350.765625 340.277344 323.171875 371.726562 317.449219 C 373.117188 317.195312 374.132812 315.992188 374.132812 314.578125 C 374.132812 312.757812 372.484375 311.382812 370.699219 311.703125 C 365.425781 312.65625 360.28125 314.191406 355.304688 316.292969 C 346.574219 319.988281 338.734375 325.273438 332.003906 332.003906 C 325.273438 338.734375 319.988281 346.574219 316.292969 355.304688 C 312.472656 364.34375 310.53125 373.945312 310.53125 383.839844 C 310.53125 393.738281 312.472656 403.335938 316.292969 412.375 C 319.988281 421.105469 325.273438 428.945312 332.003906 435.675781 C 338.734375 442.410156 346.574219 447.695312 355.304688 451.386719 C 360.28125 453.492188 365.425781 455.023438 370.699219 455.976562 C 372.484375 456.300781 374.132812 454.921875 374.132812 453.105469 C 374.132812 451.691406 373.117188 450.488281 371.726562 450.234375 C 340.277344 444.511719 316.359375 416.917969 316.359375 383.839844 " fill-opacity="1" fill-rule="nonzero"/></svg>